<svg width="64" height="12" viewBox="0 0 64 12" fill="none" xmlns="http://www.w3.org/2000/svg">
    <path fill-rule="evenodd" clip-rule="evenodd" d="M25.4136 9.29351C23.1043 10.9524 19.7576 11.8345 16.8747 11.8345C12.8351 11.8345 9.19724 10.3809 6.44399 7.96065C6.22762 7.77013 6.42093 7.51069 6.68026 7.65783C9.64988 9.34075 13.3235 10.3538 17.1165 10.3538C19.6756 10.3538 22.4886 9.83641 25.0771 8.76765C25.4677 8.60656 25.7947 9.0178 25.4128 9.29274L25.4136 9.29351Z" fill="#E79B37"/>
    <path fill-rule="evenodd" clip-rule="evenodd" d="M26.3741 8.2253C26.0789 7.85743 24.4219 8.05104 23.6773 8.13778C23.4522 8.16412 23.4172 7.97205 23.62 7.83342C24.9422 6.92961 27.1075 7.19061 27.3589 7.49343C27.6127 7.79857 27.2921 9.91209 26.0543 10.9212C25.8634 11.0761 25.682 10.9932 25.7671 10.7888C26.0455 10.1111 26.67 8.59394 26.3741 8.22607V8.2253Z" fill="#E79B37"/>
    <path fill-rule="evenodd" clip-rule="evenodd" d="M23.7305 1.44891V0.570666C23.7313 0.436683 23.8347 0.347619 23.9596 0.348394H28.0024C28.132 0.348394 28.2355 0.439781 28.2355 0.569892V1.32267C28.2339 1.44891 28.1249 1.61387 27.9308 1.87564L25.8362 4.78687C26.6134 4.76906 27.436 4.8829 28.1424 5.26936C28.3015 5.3561 28.3444 5.48544 28.3572 5.61245V6.54956C28.3572 6.67889 28.2116 6.82836 28.0589 6.75014C26.8147 6.11585 25.1632 6.04615 23.787 6.75789C23.6462 6.83069 23.499 6.68354 23.499 6.5542V5.66357C23.499 5.52106 23.5022 5.27711 23.6494 5.06026L26.0757 1.67118H23.9636C23.8347 1.67118 23.7305 1.58135 23.7297 1.44969L23.7305 1.44891Z" fill="#353E46"/>
    <path fill-rule="evenodd" clip-rule="evenodd" d="M8.98341 6.93348H7.75356C7.63662 6.92574 7.54275 6.84054 7.5332 6.73134V0.585942C7.534 0.462802 7.6406 0.365219 7.77185 0.365219H8.91738C9.03751 0.37064 9.13297 0.45893 9.14092 0.571227V1.37358H9.16399C9.4623 0.597559 10.0247 0.235107 10.7828 0.235107C11.541 0.235107 12.0342 0.597559 12.3786 1.37358C12.6769 0.597559 13.3547 0.235107 14.0778 0.235107C14.5941 0.235107 15.1573 0.441891 15.501 0.907346C15.8916 1.42469 15.8112 2.17438 15.8112 2.83422L15.8096 6.71276C15.8096 6.83512 15.7038 6.93425 15.5726 6.93425H14.3443C14.221 6.92651 14.124 6.83125 14.124 6.71353V3.45534C14.124 3.19745 14.1462 2.55077 14.089 2.30449C13.9975 1.89015 13.7214 1.77398 13.3659 1.77398C13.0675 1.77398 12.7573 1.96759 12.6308 2.27815C12.5043 2.58872 12.5163 3.10606 12.5163 3.45534V6.71276C12.5163 6.83512 12.4104 6.93425 12.2792 6.93425H11.0509C10.9276 6.92651 10.8298 6.83125 10.8298 6.71353L10.8282 3.45534C10.8282 2.76994 10.9427 1.76158 10.0709 1.76158C9.19899 1.76158 9.22127 2.74438 9.22127 3.45534V6.71276C9.22127 6.83512 9.11467 6.93425 8.98341 6.93425V6.93348Z" fill="#353E46"/>
    <path fill-rule="evenodd" clip-rule="evenodd" d="M31.7262 1.48901C30.8193 1.48901 30.762 2.69099 30.762 3.44145C30.762 4.19191 30.7509 5.79505 31.715 5.79505C32.6792 5.79505 32.7142 4.50169 32.7142 3.71328C32.7142 3.19594 32.6911 2.57482 32.5304 2.0838C32.3928 1.65707 32.1167 1.48901 31.7269 1.48901H31.7262ZM31.715 0.234375C33.5407 0.234375 34.5279 1.76085 34.5279 3.70012C34.5279 5.63939 33.4373 7.06286 31.715 7.06286C29.9927 7.06286 28.9482 5.53638 28.9482 3.63584C28.9482 1.73529 29.9355 0.234375 31.715 0.234375Z" fill="#353E46"/>
    <path fill-rule="evenodd" clip-rule="evenodd" d="M36.8951 6.93348H35.67C35.5467 6.92574 35.4496 6.83048 35.4496 6.71276L35.4473 0.565031C35.4576 0.452734 35.5594 0.364445 35.6835 0.364445H36.8243C36.9317 0.369866 37.02 0.441117 37.0431 0.536377V1.47658H37.0661C37.4106 0.635508 37.8926 0.235107 38.7422 0.235107C39.2935 0.235107 39.8329 0.428725 40.1773 0.959235C40.4987 1.45025 40.4987 2.27815 40.4987 2.87295V6.73986C40.4852 6.84906 40.385 6.93348 40.2633 6.93348H39.0302C38.9165 6.92651 38.8242 6.84442 38.8115 6.73986V3.40346C38.8115 2.73122 38.8918 1.74764 38.0422 1.74764C37.7439 1.74764 37.4678 1.94126 37.3302 2.23866C37.1576 2.6135 37.1353 2.98834 37.1353 3.40268V6.71198C37.1329 6.83435 37.0271 6.93348 36.8959 6.93348H36.8951Z" fill="#353E46"/>
    <path fill-rule="evenodd" clip-rule="evenodd" d="M21.7465 6.9183C21.6654 6.98955 21.5477 6.99419 21.4562 6.94618C21.0481 6.61548 20.9749 6.46291 20.7514 6.14848C20.076 6.81839 19.5979 7.01898 18.7236 7.01898C17.6879 7.01898 16.8828 6.39708 16.8828 5.15251C16.8828 4.18056 17.4238 3.51916 18.1946 3.19543C18.862 2.91043 19.7936 2.85854 20.5071 2.78032V2.62465C20.5071 2.33964 20.5302 2.00275 20.3576 1.75647C20.208 1.53575 19.9201 1.44513 19.6671 1.44513C19.1977 1.44513 18.7809 1.67902 18.6783 2.16384C18.6568 2.27149 18.5764 2.37837 18.4651 2.38456L17.2726 2.2591C17.1716 2.23664 17.0602 2.15842 17.0888 2.00895C17.3593 0.620326 18.6329 0.188173 19.7904 0.175781H19.8819C20.4745 0.182751 21.231 0.340743 21.6916 0.772121C22.2899 1.31657 22.2326 2.04225 22.2326 2.83298V4.6979C22.2326 5.25939 22.472 5.50567 22.6972 5.80771C22.7759 5.91691 22.7934 6.04625 22.6932 6.12602C22.4418 6.33125 21.9955 6.70842 21.7505 6.9214L21.7473 6.91907L21.7465 6.9183ZM20.5071 3.99855C20.5071 4.46556 20.5183 4.85357 20.2764 5.26868C20.0807 5.60558 19.7697 5.81313 19.4252 5.81313C18.9535 5.81313 18.6775 5.46307 18.6775 4.94495C18.6775 3.92498 19.617 3.73988 20.5071 3.73988V3.99933V3.99855Z" fill="#353E46"/>
    <path fill-rule="evenodd" clip-rule="evenodd" d="M5.62447 6.9183C5.54332 6.98955 5.42559 6.99419 5.33411 6.94618C4.92522 6.61548 4.85203 6.46291 4.62929 6.14848C3.9539 6.81839 3.4758 7.01898 2.60154 7.01898C1.56579 7.01898 0.760742 6.39708 0.760742 5.15251C0.760742 4.18056 1.30169 3.51916 2.07253 3.19543C2.73996 2.91043 3.6715 2.85854 4.38507 2.78032V2.62465C4.38507 2.33964 4.40814 2.00275 4.23551 1.75647C4.08596 1.53575 3.79798 1.44513 3.54501 1.44513C3.07566 1.44513 2.65882 1.67902 2.5562 2.16384C2.53472 2.27149 2.45358 2.37837 2.34221 2.38456L1.15054 2.2591C1.04951 2.23664 0.93814 2.15842 0.966778 2.00895C1.23725 0.620326 2.51085 0.188173 3.66832 0.175781H3.7598C4.35245 0.182751 5.10898 0.340743 5.56958 0.772121C6.1678 1.31657 6.11052 2.04225 6.11052 2.83298V4.6979C6.11052 5.25939 6.34997 5.50567 6.5743 5.80771C6.65305 5.91691 6.67056 6.04625 6.57032 6.12602C6.31894 6.33125 5.87266 6.70842 5.62685 6.9214L5.62367 6.91907L5.62447 6.9183ZM4.38427 3.99855C4.38427 4.46556 4.3962 4.85357 4.15437 5.26868C3.95868 5.60558 3.64843 5.81313 3.30318 5.81313C2.83144 5.81313 2.5554 5.46307 2.5554 4.94495C2.5554 3.92498 3.4949 3.73988 4.38507 3.73988V3.99933L4.38427 3.99855Z" fill="#353E46"/>
    <path fill-rule="evenodd" clip-rule="evenodd" d="M57.3113 9.13846V8.68694C57.3113 8.55838 57.3765 8.47009 57.5141 8.47783C57.7711 8.51346 58.1346 8.54831 58.3924 8.4972C58.7297 8.42904 58.9707 8.1967 59.1139 7.87762C59.3152 7.42843 59.4488 7.06675 59.5331 6.82977L56.9748 0.658808C56.9318 0.554255 56.9191 0.359863 57.1339 0.359863H58.028C58.1991 0.359863 58.2683 0.465192 58.3065 0.568971L60.1616 5.58133L61.9324 0.568971C61.969 0.466741 62.0414 0.359863 62.2108 0.359863H63.0541C63.2672 0.359863 63.2553 0.55348 63.2132 0.658808L60.6755 7.02184C60.3469 7.8691 59.9094 9.21823 58.9238 9.45289C58.4298 9.57836 57.8061 9.53344 57.4402 9.38396C57.3479 9.33904 57.3121 9.21823 57.3121 9.13846H57.3113Z" fill="#353E46"/>
    <path fill-rule="evenodd" clip-rule="evenodd" d="M56.1188 6.55721C56.1188 6.67183 56.0218 6.76632 55.9033 6.76632H55.2724C55.1364 6.76632 55.0425 6.67028 55.0258 6.55721L54.9622 6.139C54.6718 6.37831 54.3162 6.58741 53.9304 6.73379C53.189 7.01415 52.3338 7.06061 51.6083 6.62769C51.0841 6.31403 50.8057 5.7022 50.8057 5.07023C50.8057 4.58154 50.9608 4.0975 51.3037 3.74512C51.7611 3.26495 52.4245 3.02873 53.2256 3.02873C53.7093 3.02873 54.4013 3.08372 54.9049 3.24481V2.40374C54.9049 1.54873 54.535 1.17776 53.5597 1.17776C52.8143 1.17776 52.2439 1.28773 51.4508 1.52782C51.3243 1.53169 51.2496 1.43798 51.2496 1.32336V0.843961C51.2496 0.728565 51.3506 0.617816 51.4596 0.583739C52.026 0.343654 52.8286 0.193408 53.6822 0.165527C54.7943 0.165527 56.1173 0.409485 56.1173 2.07537V6.55721H56.1188ZM54.9065 5.32891V4.05955C54.4833 3.94725 53.7824 3.90001 53.5112 3.90001C53.0824 3.90001 52.6138 3.99837 52.3688 4.25549C52.1859 4.44369 52.1023 4.71398 52.1023 4.97497C52.1023 5.31264 52.2225 5.65108 52.5025 5.81914C52.8278 6.03444 53.333 6.00811 53.8079 5.87723C54.2637 5.75099 54.6925 5.52794 54.9049 5.32891H54.9065Z" fill="#353E46"/>
    <path fill-rule="evenodd" clip-rule="evenodd" d="M46.8182 1.19715C48.2175 1.19715 48.5994 2.26824 48.5994 3.495C48.6073 4.32213 48.4514 5.05942 48.0107 5.48151C47.6814 5.79749 47.3138 5.88346 46.7602 5.88346C46.2677 5.88346 45.6194 5.6333 45.1349 5.28479V1.77723C45.6393 1.40006 46.2821 1.19638 46.8182 1.19638V1.19715ZM44.9209 9.35849H44.0761C43.9576 9.35849 43.8613 9.26478 43.8613 9.14939V0.579127C43.8613 0.464505 43.9576 0.37002 44.0761 0.37002H44.7229C44.8589 0.37002 44.952 0.466054 44.9687 0.579127L45.0363 1.02832C45.6425 0.504778 46.4221 0.169434 47.1651 0.169434C49.2461 0.169434 49.9302 1.83841 49.9302 3.57399C49.9302 5.43117 48.8834 6.92357 47.1134 6.92357C46.368 6.92357 45.6711 6.6556 45.1349 6.19015V9.14939C45.1349 9.26401 45.0387 9.35849 44.9201 9.35849H44.9209Z" fill="#353E46"/>
</svg>