<svg width="46" height="26" viewBox="0 0 46 26" fill="none" xmlns="http://www.w3.org/2000/svg">
    <path d="M0.549906 22.208C0.549906 21.664 0.67524 21.176 0.925906 20.744C1.18191 20.312 1.52591 19.976 1.95791 19.736C2.39524 19.4907 2.87257 19.368 3.38991 19.368C3.98191 19.368 4.50724 19.5147 4.96591 19.808C5.42991 20.096 5.76591 20.5067 5.97391 21.04H4.87791C4.73391 20.7467 4.53391 20.528 4.27791 20.384C4.02191 20.24 3.72591 20.168 3.38991 20.168C3.02191 20.168 2.69391 20.2507 2.40591 20.416C2.11791 20.5813 1.89124 20.8187 1.72591 21.128C1.56591 21.4373 1.48591 21.7973 1.48591 22.208C1.48591 22.6187 1.56591 22.9787 1.72591 23.288C1.89124 23.5973 2.11791 23.8373 2.40591 24.008C2.69391 24.1733 3.02191 24.256 3.38991 24.256C3.72591 24.256 4.02191 24.184 4.27791 24.04C4.53391 23.896 4.73391 23.6773 4.87791 23.384H5.97391C5.76591 23.9173 5.42991 24.328 4.96591 24.616C4.50724 24.904 3.98191 25.048 3.38991 25.048C2.86724 25.048 2.38991 24.928 1.95791 24.688C1.52591 24.4427 1.18191 24.104 0.925906 23.672C0.67524 23.24 0.549906 22.752 0.549906 22.208ZM7.95341 21.232C8.08674 21.008 8.26274 20.8347 8.48141 20.712C8.70541 20.584 8.96941 20.52 9.27341 20.52V21.464H9.04141C8.68407 21.464 8.41207 21.5547 8.22541 21.736C8.04407 21.9173 7.95341 22.232 7.95341 22.68V25H7.04141V20.592H7.95341V21.232ZM14.1517 22.688C14.1517 22.8533 14.1411 23.0027 14.1197 23.136H10.7517C10.7784 23.488 10.9091 23.7707 11.1437 23.984C11.3784 24.1973 11.6664 24.304 12.0077 24.304C12.4984 24.304 12.8451 24.0987 13.0477 23.688H14.0317C13.8984 24.0933 13.6557 24.4267 13.3037 24.688C12.9571 24.944 12.5251 25.072 12.0077 25.072C11.5864 25.072 11.2077 24.9787 10.8717 24.792C10.5411 24.6 10.2797 24.3333 10.0877 23.992C9.90105 23.6453 9.80772 23.2453 9.80772 22.792C9.80772 22.3387 9.89839 21.9413 10.0797 21.6C10.2664 21.2533 10.5251 20.9867 10.8557 20.8C11.1917 20.6133 11.5757 20.52 12.0077 20.52C12.4237 20.52 12.7944 20.6107 13.1197 20.792C13.4451 20.9733 13.6984 21.2293 13.8797 21.56C14.0611 21.8853 14.1517 22.2613 14.1517 22.688ZM13.1997 22.4C13.1944 22.064 13.0744 21.7947 12.8397 21.592C12.6051 21.3893 12.3144 21.288 11.9677 21.288C11.6531 21.288 11.3837 21.3893 11.1597 21.592C10.9357 21.7893 10.8024 22.0587 10.7597 22.4H13.1997ZM14.7452 22.776C14.7452 22.3333 14.8359 21.9413 15.0172 21.6C15.2039 21.2587 15.4546 20.9947 15.7692 20.808C16.0892 20.616 16.4439 20.52 16.8332 20.52C17.1212 20.52 17.4039 20.584 17.6812 20.712C17.9639 20.8347 18.1879 21 18.3532 21.208V19.08H19.2732V25H18.3532V24.336C18.2039 24.5493 17.9959 24.7253 17.7292 24.864C17.4679 25.0027 17.1666 25.072 16.8252 25.072C16.4412 25.072 16.0892 24.976 15.7692 24.784C15.4546 24.5867 15.2039 24.3147 15.0172 23.968C14.8359 23.616 14.7452 23.2187 14.7452 22.776ZM18.3532 22.792C18.3532 22.488 18.2892 22.224 18.1612 22C18.0386 21.776 17.8759 21.6053 17.6732 21.488C17.4706 21.3707 17.2519 21.312 17.0172 21.312C16.7826 21.312 16.5639 21.3707 16.3612 21.488C16.1586 21.6 15.9932 21.768 15.8652 21.992C15.7426 22.2107 15.6812 22.472 15.6812 22.776C15.6812 23.08 15.7426 23.3467 15.8652 23.576C15.9932 23.8053 16.1586 23.9813 16.3612 24.104C16.5692 24.2213 16.7879 24.28 17.0172 24.28C17.2519 24.28 17.4706 24.2213 17.6732 24.104C17.8759 23.9867 18.0386 23.816 18.1612 23.592C18.2892 23.3627 18.3532 23.096 18.3532 22.792ZM20.9351 20.008C20.7698 20.008 20.6311 19.952 20.5191 19.84C20.4071 19.728 20.3511 19.5893 20.3511 19.424C20.3511 19.2587 20.4071 19.12 20.5191 19.008C20.6311 18.896 20.7698 18.84 20.9351 18.84C21.0951 18.84 21.2311 18.896 21.3431 19.008C21.4551 19.12 21.5111 19.2587 21.5111 19.424C21.5111 19.5893 21.4551 19.728 21.3431 19.84C21.2311 19.952 21.0951 20.008 20.9351 20.008ZM21.3831 20.592V25H20.4711V20.592H21.3831ZM23.6445 21.336V23.776C23.6445 23.9413 23.6818 24.0613 23.7565 24.136C23.8365 24.2053 23.9698 24.24 24.1565 24.24H24.7165V25H23.9965C23.5858 25 23.2711 24.904 23.0525 24.712C22.8338 24.52 22.7245 24.208 22.7245 23.776V21.336H22.2045V20.592H22.7245V19.496H23.6445V20.592H24.7165V21.336H23.6445ZM27.3312 22.792C27.3312 22.3387 27.4218 21.9413 27.6032 21.6C27.7898 21.2533 28.0458 20.9867 28.3712 20.8C28.6965 20.6133 29.0698 20.52 29.4912 20.52C30.0245 20.52 30.4645 20.648 30.8112 20.904C31.1632 21.1547 31.4005 21.5147 31.5232 21.984H30.5392C30.4592 21.7653 30.3312 21.5947 30.1552 21.472C29.9792 21.3493 29.7578 21.288 29.4912 21.288C29.1178 21.288 28.8192 21.4213 28.5952 21.688C28.3765 21.9493 28.2672 22.3173 28.2672 22.792C28.2672 23.2667 28.3765 23.6373 28.5952 23.904C28.8192 24.1707 29.1178 24.304 29.4912 24.304C30.0192 24.304 30.3685 24.072 30.5392 23.608H31.5232C31.3952 24.056 31.1552 24.4133 30.8032 24.68C30.4512 24.9413 30.0138 25.072 29.4912 25.072C29.0698 25.072 28.6965 24.9787 28.3712 24.792C28.0458 24.6 27.7898 24.3333 27.6032 23.992C27.4218 23.6453 27.3312 23.2453 27.3312 22.792ZM32.128 22.776C32.128 22.3333 32.2187 21.9413 32.4 21.6C32.5867 21.2587 32.8374 20.9947 33.152 20.808C33.472 20.616 33.824 20.52 34.208 20.52C34.5547 20.52 34.856 20.5893 35.112 20.728C35.3734 20.8613 35.5814 21.0293 35.736 21.232V20.592H36.656V25H35.736V24.344C35.5814 24.552 35.3707 24.7253 35.104 24.864C34.8374 25.0027 34.5334 25.072 34.192 25.072C33.8134 25.072 33.4667 24.976 33.152 24.784C32.8374 24.5867 32.5867 24.3147 32.4 23.968C32.2187 23.616 32.128 23.2187 32.128 22.776ZM35.736 22.792C35.736 22.488 35.672 22.224 35.544 22C35.4214 21.776 35.2587 21.6053 35.056 21.488C34.8534 21.3707 34.6347 21.312 34.4 21.312C34.1654 21.312 33.9467 21.3707 33.744 21.488C33.5414 21.6 33.376 21.768 33.248 21.992C33.1254 22.2107 33.064 22.472 33.064 22.776C33.064 23.08 33.1254 23.3467 33.248 23.576C33.376 23.8053 33.5414 23.9813 33.744 24.104C33.952 24.2213 34.1707 24.28 34.4 24.28C34.6347 24.28 34.8534 24.2213 35.056 24.104C35.2587 23.9867 35.4214 23.816 35.544 23.592C35.672 23.3627 35.736 23.096 35.736 22.792ZM38.7659 21.232C38.8992 21.008 39.0752 20.8347 39.2939 20.712C39.5179 20.584 39.7819 20.52 40.0859 20.52V21.464H39.8539C39.4966 21.464 39.2246 21.5547 39.0379 21.736C38.8566 21.9173 38.7659 22.232 38.7659 22.68V25H37.8539V20.592H38.7659V21.232ZM40.6202 22.776C40.6202 22.3333 40.7109 21.9413 40.8922 21.6C41.0789 21.2587 41.3296 20.9947 41.6442 20.808C41.9642 20.616 42.3189 20.52 42.7082 20.52C42.9962 20.52 43.2789 20.584 43.5562 20.712C43.8389 20.8347 44.0629 21 44.2282 21.208V19.08H45.1482V25H44.2282V24.336C44.0789 24.5493 43.8709 24.7253 43.6042 24.864C43.3429 25.0027 43.0416 25.072 42.7002 25.072C42.3162 25.072 41.9642 24.976 41.6442 24.784C41.3296 24.5867 41.0789 24.3147 40.8922 23.968C40.7109 23.616 40.6202 23.2187 40.6202 22.776ZM44.2282 22.792C44.2282 22.488 44.1642 22.224 44.0362 22C43.9136 21.776 43.7509 21.6053 43.5482 21.488C43.3456 21.3707 43.1269 21.312 42.8922 21.312C42.6576 21.312 42.4389 21.3707 42.2362 21.488C42.0336 21.6 41.8682 21.768 41.7402 21.992C41.6176 22.2107 41.5562 22.472 41.5562 22.776C41.5562 23.08 41.6176 23.3467 41.7402 23.576C41.8682 23.8053 42.0336 23.9813 42.2362 24.104C42.4442 24.2213 42.6629 24.28 42.8922 24.28C43.1269 24.28 43.3456 24.2213 43.5482 24.104C43.7509 23.9867 43.9136 23.816 44.0362 23.592C44.1642 23.3627 44.2282 23.096 44.2282 22.792Z" fill="#767373"/>
    <path fill-rule="evenodd" clip-rule="evenodd" d="M13.2806 4.19059e-06H33.7197C34.0592 0.000334259 34.3847 0.135505 34.6247 0.37548C34.8646 0.615621 34.9995 0.9411 34.9998 1.28059V3.0497L12.0007 3.04954V1.27975C12.001 0.94042 12.1362 0.614966 12.3761 0.375146C12.6161 0.135171 12.9416 0.000164781 13.2809 0L13.2806 4.19059e-06ZM33.7197 14.1044H13.2806C12.9411 14.1041 12.6156 13.9692 12.3755 13.7292C12.1355 13.4893 12.0003 13.1638 12 12.8243V4.34443H35V12.8239C34.9997 13.1634 34.8647 13.4888 34.6245 13.729C34.3844 13.9691 34.0589 14.1043 33.7194 14.1046L33.7197 14.1044ZM20.2787 11.1633C20.2787 10.9915 20.2105 10.8266 20.0891 10.7051C19.9676 10.5835 19.8027 10.5153 19.6309 10.5153H14.6499C14.4759 10.5117 14.3077 10.5784 14.1834 10.7002C14.059 10.8221 13.989 10.9888 13.989 11.163C13.989 11.3369 14.059 11.5038 14.1834 11.6256C14.3077 11.7474 14.4759 11.814 14.6499 11.8106H19.6305C19.8024 11.8106 19.9673 11.7423 20.0888 11.6206C20.2104 11.4988 20.2786 11.3339 20.2784 11.162L20.2787 11.1633ZM23.2954 7.77195C23.2955 7.59997 23.2274 7.43492 23.1059 7.31331C22.9844 7.19167 22.8195 7.12334 22.6475 7.12334H14.6502H14.6504C14.4188 7.12334 14.2051 7.2468 14.0894 7.44732C13.9735 7.64769 13.9735 7.8946 14.0894 8.09495C14.2051 8.29548 14.4188 8.41894 14.6504 8.41894H22.6473C22.8188 8.41877 22.9832 8.35061 23.1046 8.22947C23.2261 8.10849 23.2946 7.94427 23.2952 7.77277L23.2954 7.77195Z" fill="#AAAAAA"/>
</svg>