<svg width="14" height="13" viewBox="0 0 14 13" fill="none" xmlns="http://www.w3.org/2000/svg">
<path d="M6.8028 4.09398H3.6514V8.90602C3.6514 9.33455 3.29872 9.68144 2.8645 9.68144H1.6813V12.375H11.5299C12.6164 12.375 13.5 11.5143 13.5 10.4513V2.54871C13.5 1.48575 12.6164 0.625 11.5299 0.625H2.4701C1.38171 0.625 0.5 1.48575 0.5 2.54871V6.21432H2.4701V4.09398C2.4701 3.66731 2.81899 3.32412 3.257 3.32412H9.1673C9.60152 3.32412 9.9542 3.66546 9.9542 4.09398V8.90602C9.9542 9.33455 9.60152 9.68144 9.1673 9.68144H7.5916C7.15738 9.68144 6.8047 9.33269 6.8047 8.90602V4.09398H6.8028Z" fill="#236192"/>
</svg>
